<svg width="68" height="24" viewBox="0 0 68 24" fill="none" xmlns="http://www.w3.org/2000/svg">
<g filter="url(#filter0_d_5132_298)">
<path d="M6.46008 6.49706H11.8521V8.51306H6.46008V6.49706ZM6.65208 11.1051H12.7481V13.1851H4.07608V1.98506H12.5401V4.06506H6.65208V11.1051ZM20.7457 13.1851L17.8657 9.10506L19.8977 7.90506L23.6897 13.1851H20.7457ZM14.6497 13.1851V4.57706H17.1457V13.1851H14.6497ZM16.4097 9.92106V7.92106H19.4177V9.92106H16.4097ZM20.1377 9.16906L17.8017 8.91306L20.8257 4.57706H23.4817L20.1377 9.16906ZM28.6817 13.3131C27.7644 13.3131 26.9484 13.1211 26.2337 12.7371C25.5297 12.3531 24.9697 11.8304 24.5537 11.1691C24.1484 10.4971 23.9457 9.73439 23.9457 8.88106C23.9457 8.01706 24.1484 7.25439 24.5537 6.59306C24.9697 5.92106 25.5297 5.39839 26.2337 5.02506C26.9484 4.64106 27.7644 4.44906 28.6817 4.44906C29.5884 4.44906 30.399 4.64106 31.1137 5.02506C31.8284 5.39839 32.3884 5.91572 32.7937 6.57706C33.199 7.23839 33.4017 8.00639 33.4017 8.88106C33.4017 9.73439 33.199 10.4971 32.7937 11.1691C32.3884 11.8304 31.8284 12.3531 31.1137 12.7371C30.399 13.1211 29.5884 13.3131 28.6817 13.3131ZM28.6817 11.2651C29.0977 11.2651 29.471 11.1691 29.8017 10.9771C30.1324 10.7851 30.3937 10.5131 30.5857 10.1611C30.7777 9.79839 30.8737 9.37173 30.8737 8.88106C30.8737 8.37972 30.7777 7.95306 30.5857 7.60106C30.3937 7.24906 30.1324 6.97706 29.8017 6.78506C29.471 6.59306 29.0977 6.49706 28.6817 6.49706C28.2657 6.49706 27.8924 6.59306 27.5617 6.78506C27.231 6.97706 26.9644 7.24906 26.7617 7.60106C26.5697 7.95306 26.4737 8.37972 26.4737 8.88106C26.4737 9.37173 26.5697 9.79839 26.7617 10.1611C26.9644 10.5131 27.231 10.7851 27.5617 10.9771C27.8924 11.1691 28.2657 11.2651 28.6817 11.2651ZM42.6876 12.0331V4.09706H38.8476L38.7996 5.72906C38.7676 6.42239 38.7196 7.07839 38.6556 7.69706C38.6022 8.31572 38.5169 8.88106 38.3996 9.39306C38.2822 9.89439 38.1276 10.3211 37.9356 10.6731C37.7542 11.0251 37.5249 11.2757 37.2476 11.4251L34.4796 11.0731C34.8636 11.0837 35.1782 10.9504 35.4236 10.6731C35.6796 10.3957 35.8822 10.0064 36.0316 9.50506C36.1809 8.99306 36.2876 8.39572 36.3516 7.71306C36.4262 7.03039 36.4796 6.28906 36.5116 5.48906L36.6396 1.98506H45.2476V12.0331H42.6876ZM34.1116 15.5051L34.1276 11.0731H46.8156V15.5051H44.4156V13.1851H36.5116V15.5051H34.1116ZM48.3525 13.1851V4.57706H50.8485V13.1851H48.3525ZM49.6005 3.37706C49.1418 3.37706 48.7685 3.24372 48.4805 2.97706C48.1925 2.71039 48.0485 2.37972 48.0485 1.98506C48.0485 1.59039 48.1925 1.25972 48.4805 0.993058C48.7685 0.726391 49.1418 0.593058 49.6005 0.593058C50.0591 0.593058 50.4325 0.721058 50.7205 0.977058C51.0085 1.22239 51.1525 1.54239 51.1525 1.93706C51.1525 2.35306 51.0085 2.69972 50.7205 2.97706C50.4431 3.24372 50.0698 3.37706 49.6005 3.37706ZM53.2435 13.1851V4.57706H55.8515L59.0995 10.4651H58.0595L61.5315 4.57706H63.8675L63.8995 13.1851H61.6435V7.13706L62.0275 7.39306L59.0675 12.3531H58.0115L55.0355 7.21706L55.4995 7.10506V13.1851H53.2435Z" fill="white" fill-opacity="0.1" shape-rendering="crispEdges"/>
</g>
<defs>
<filter id="filter0_d_5132_298" x="0.0761719" y="0.593262" width="67.8232" height="22.9116" filterUnits="userSpaceOnUse" color-interpolation-filters="sRGB">
<feFlood flood-opacity="0" result="BackgroundImageFix"/>
<feColorMatrix in="SourceAlpha" type="matrix" values="0 0 0 0 0 0 0 0 0 0 0 0 0 0 0 0 0 0 127 0" result="hardAlpha"/>
<feOffset dy="4"/>
<feGaussianBlur stdDeviation="2"/>
<feComposite in2="hardAlpha" operator="out"/>
<feColorMatrix type="matrix" values="0 0 0 0 0 0 0 0 0 0 0 0 0 0 0 0 0 0 0.25 0"/>
<feBlend mode="normal" in2="BackgroundImageFix" result="effect1_dropShadow_5132_298"/>
<feBlend mode="normal" in="SourceGraphic" in2="effect1_dropShadow_5132_298" result="shape"/>
</filter>
</defs>
</svg>
