<svg width="78" height="18" viewBox="0 0 78 18" fill="none" xmlns="http://www.w3.org/2000/svg">
<path d="M6.8 15.26C5.96 15.26 5.18 15.1733 4.46 15C3.74 14.8133 3.10667 14.52 2.56 14.12C2.02667 13.72 1.59333 13.2 1.26 12.56C0.94 11.92 0.753333 11.1333 0.7 10.2H4.42C4.51333 10.92 4.76667 11.4467 5.18 11.78C5.59333 12.1 6.14 12.26 6.82 12.26C7.15333 12.26 7.46667 12.2133 7.76 12.12C8.06667 12.0267 8.34 11.8667 8.58 11.64C8.82 11.4 9.02 11.0933 9.18 10.72C9.34 10.3333 9.45333 9.85333 9.52 9.28H5.3V6.52H9.5C9.36667 5.48 9.06667 4.76 8.6 4.36C8.13333 3.94667 7.53333 3.74 6.8 3.74C6.53333 3.74 6.26667 3.78 6 3.86C5.74667 3.92667 5.51333 4.04667 5.3 4.22C5.08667 4.38 4.9 4.59333 4.74 4.86C4.58 5.11333 4.47333 5.42667 4.42 5.8H0.7C0.766667 4.88 0.966667 4.1 1.3 3.46C1.64667 2.82 2.08667 2.3 2.62 1.9C3.16667 1.5 3.79333 1.20667 4.5 1.02C5.20667 0.833332 5.97333 0.739999 6.8 0.739999C7.70667 0.739999 8.55333 0.873332 9.34 1.14C10.14 1.40667 10.8333 1.82 11.42 2.38C12.0067 2.94 12.4667 3.66 12.8 4.54C13.1333 5.42 13.3 6.47333 13.3 7.7V8.08C13.3 9.38667 13.14 10.4933 12.82 11.4C12.5 12.3067 12.0533 13.0467 11.48 13.62C10.92 14.1933 10.24 14.6133 9.44 14.88C8.64 15.1333 7.76 15.26 6.8 15.26ZM15.1992 4.4H18.2792V8.42H19.0792L22.0392 4.4H25.3992L21.4992 9.38L25.5992 15H21.9592L19.0792 10.78H18.2792V15H15.1992V4.4ZM31.4102 15.26C30.6635 15.26 29.9635 15.1533 29.3102 14.94C28.6568 14.7133 28.0835 14.3733 27.5902 13.92C27.0968 13.4667 26.7102 12.9 26.4302 12.22C26.1502 11.5267 26.0102 10.72 26.0102 9.8V9.4C26.0102 8.53333 26.1502 7.77333 26.4302 7.12C26.7102 6.46667 27.0968 5.92 27.5902 5.48C28.0835 5.04 28.6568 4.70667 29.3102 4.48C29.9635 4.25333 30.6635 4.14 31.4102 4.14C32.1568 4.14 32.8568 4.25333 33.5102 4.48C34.1635 4.70667 34.7368 5.04 35.2302 5.48C35.7235 5.92 36.1102 6.46667 36.3902 7.12C36.6702 7.77333 36.8102 8.53333 36.8102 9.4V9.8C36.8102 10.7067 36.6702 11.5067 36.3902 12.2C36.1102 12.88 35.7235 13.4467 35.2302 13.9C34.7368 14.3533 34.1635 14.6933 33.5102 14.92C32.8568 15.1467 32.1568 15.26 31.4102 15.26ZM31.4102 12.7C32.1302 12.7 32.6835 12.44 33.0702 11.92C33.4568 11.4 33.6502 10.6933 33.6502 9.8V9.4C33.6502 8.6 33.4568 7.95333 33.0702 7.46C32.6835 6.95333 32.1302 6.7 31.4102 6.7C30.6902 6.7 30.1368 6.95333 29.7502 7.46C29.3635 7.95333 29.1702 8.6 29.1702 9.4V9.8C29.1702 10.72 29.3635 11.4333 29.7502 11.94C30.1368 12.4467 30.6902 12.7 31.4102 12.7ZM37.7023 12.04H39.3023C39.4757 11.5867 39.6157 11.0667 39.7223 10.48C39.8423 9.88 39.9357 9.24667 40.0023 8.58C40.069 7.9 40.1157 7.20667 40.1423 6.5C40.1823 5.78 40.2023 5.08 40.2023 4.4V0.999999H50.4823V12.04H51.9023V17.6H48.7823V15H40.8223V17.6H37.7023V12.04ZM46.8823 12.04V3.96H43.5623V4.8C43.5623 6.42667 43.4957 7.83333 43.3623 9.02C43.2423 10.1933 43.0423 11.2 42.7623 12.04H46.8823ZM58.4023 15.26C57.6557 15.26 56.9557 15.1533 56.3023 14.94C55.649 14.7133 55.0757 14.3733 54.5823 13.92C54.089 13.4667 53.7023 12.9 53.4223 12.22C53.1423 11.5267 53.0023 10.72 53.0023 9.8V9.4C53.0023 8.53333 53.1423 7.77333 53.4223 7.12C53.7023 6.46667 54.089 5.92 54.5823 5.48C55.0757 5.04 55.649 4.70667 56.3023 4.48C56.9557 4.25333 57.6557 4.14 58.4023 4.14C59.149 4.14 59.849 4.25333 60.5023 4.48C61.1557 4.70667 61.729 5.04 62.2223 5.48C62.7157 5.92 63.1023 6.46667 63.3823 7.12C63.6623 7.77333 63.8023 8.53333 63.8023 9.4V9.8C63.8023 10.7067 63.6623 11.5067 63.3823 12.2C63.1023 12.88 62.7157 13.4467 62.2223 13.9C61.729 14.3533 61.1557 14.6933 60.5023 14.92C59.849 15.1467 59.149 15.26 58.4023 15.26ZM58.4023 12.7C59.1223 12.7 59.6757 12.44 60.0623 11.92C60.449 11.4 60.6423 10.6933 60.6423 9.8V9.4C60.6423 8.6 60.449 7.95333 60.0623 7.46C59.6757 6.95333 59.1223 6.7 58.4023 6.7C57.6823 6.7 57.129 6.95333 56.7423 7.46C56.3557 7.95333 56.1623 8.6 56.1623 9.4V9.8C56.1623 10.72 56.3557 11.4333 56.7423 11.94C57.129 12.4467 57.6823 12.7 58.4023 12.7ZM65.3945 4.4H69.1345L71.6545 9.66L74.1745 4.4H77.7945V15H74.8745V8.5L72.5945 13H70.5945L68.3145 8.5V15H65.3945V4.4Z" fill="white"/>
</svg>
