<svg width="98" height="31" viewBox="0 0 98 31" fill="none" xmlns="http://www.w3.org/2000/svg">
<g filter="url(#filter0_d_5131_295)">
<path d="M7.664 8.968H15.752V11.992H7.664V8.968ZM7.952 15.88H17.096V19H4.088V2.2H16.784V5.32H7.952V15.88ZM29.0924 19L24.7724 12.88L27.8204 11.08L33.5084 19H29.0924ZM19.9484 19V6.088H23.6924V19H19.9484ZM22.5884 14.104V11.104H27.1004V14.104H22.5884ZM28.1804 12.976L24.6764 12.592L29.2124 6.088H33.1964L28.1804 12.976ZM40.9964 19.192C39.6204 19.192 38.3964 18.904 37.3244 18.328C36.2684 17.752 35.4284 16.968 34.8044 15.976C34.1964 14.968 33.8924 13.824 33.8924 12.544C33.8924 11.248 34.1964 10.104 34.8044 9.112C35.4284 8.104 36.2684 7.32 37.3244 6.76C38.3964 6.184 39.6204 5.896 40.9964 5.896C42.3564 5.896 43.5724 6.184 44.6444 6.76C45.7164 7.32 46.5564 8.096 47.1644 9.088C47.7724 10.08 48.0764 11.232 48.0764 12.544C48.0764 13.824 47.7724 14.968 47.1644 15.976C46.5564 16.968 45.7164 17.752 44.6444 18.328C43.5724 18.904 42.3564 19.192 40.9964 19.192ZM40.9964 16.12C41.6204 16.12 42.1804 15.976 42.6764 15.688C43.1724 15.4 43.5644 14.992 43.8524 14.464C44.1404 13.92 44.2844 13.28 44.2844 12.544C44.2844 11.792 44.1404 11.152 43.8524 10.624C43.5644 10.096 43.1724 9.688 42.6764 9.4C42.1804 9.112 41.6204 8.968 40.9964 8.968C40.3724 8.968 39.8124 9.112 39.3164 9.4C38.8204 9.688 38.4204 10.096 38.1164 10.624C37.8284 11.152 37.6844 11.792 37.6844 12.544C37.6844 13.28 37.8284 13.92 38.1164 14.464C38.4204 14.992 38.8204 15.4 39.3164 15.688C39.8124 15.976 40.3724 16.12 40.9964 16.12ZM62.0052 17.272V5.368H56.2453L56.1733 7.816C56.1253 8.856 56.0533 9.84 55.9573 10.768C55.8773 11.696 55.7493 12.544 55.5733 13.312C55.3973 14.064 55.1653 14.704 54.8773 15.232C54.6053 15.76 54.2613 16.136 53.8453 16.36L49.6933 15.832C50.2693 15.848 50.7413 15.648 51.1093 15.232C51.4933 14.816 51.7973 14.232 52.0213 13.48C52.2453 12.712 52.4053 11.816 52.5013 10.792C52.6133 9.768 52.6933 8.656 52.7413 7.456L52.9333 2.2H65.8453V17.272H62.0052ZM49.1413 22.48L49.1653 15.832H68.1973V22.48H64.5973V19H52.7413V22.48H49.1413ZM70.5026 19V6.088H74.2466V19H70.5026ZM72.3746 4.288C71.6866 4.288 71.1266 4.088 70.6946 3.688C70.2626 3.288 70.0466 2.792 70.0466 2.2C70.0466 1.608 70.2626 1.112 70.6946 0.711999C71.1266 0.311999 71.6866 0.111999 72.3746 0.111999C73.0626 0.111999 73.6226 0.303999 74.0546 0.688C74.4866 1.056 74.7026 1.536 74.7026 2.128C74.7026 2.752 74.4866 3.272 74.0546 3.688C73.6386 4.088 73.0786 4.288 72.3746 4.288ZM77.8391 19V6.088H81.7511L86.6231 14.92H85.0631L90.2711 6.088H93.7751L93.8231 19H90.4391V9.928L91.0151 10.312L86.5751 17.752H84.9911L80.5271 10.048L81.2231 9.88V19H77.8391Z" fill="white"/>
</g>
<defs>
<filter id="filter0_d_5131_295" x="0.0878906" y="0.111816" width="97.7354" height="30.3682" filterUnits="userSpaceOnUse" color-interpolation-filters="sRGB">
<feFlood flood-opacity="0" result="BackgroundImageFix"/>
<feColorMatrix in="SourceAlpha" type="matrix" values="0 0 0 0 0 0 0 0 0 0 0 0 0 0 0 0 0 0 127 0" result="hardAlpha"/>
<feOffset dy="4"/>
<feGaussianBlur stdDeviation="2"/>
<feComposite in2="hardAlpha" operator="out"/>
<feColorMatrix type="matrix" values="0 0 0 0 0 0 0 0 0 0 0 0 0 0 0 0 0 0 0.25 0"/>
<feBlend mode="normal" in2="BackgroundImageFix" result="effect1_dropShadow_5131_295"/>
<feBlend mode="normal" in="SourceGraphic" in2="effect1_dropShadow_5131_295" result="shape"/>
</filter>
</defs>
</svg>
