<svg width="63" height="15" viewBox="0 0 63 15" fill="none" xmlns="http://www.w3.org/2000/svg">
<path d="M5.44 12.208C4.768 12.208 4.144 12.1387 3.568 12C2.992 11.8507 2.48533 11.616 2.048 11.296C1.62133 10.976 1.27467 10.56 1.008 10.048C0.752 9.536 0.602667 8.90667 0.56 8.16H3.536C3.61067 8.736 3.81333 9.15733 4.144 9.424C4.47467 9.68 4.912 9.808 5.456 9.808C5.72267 9.808 5.97333 9.77067 6.208 9.696C6.45333 9.62133 6.672 9.49333 6.864 9.312C7.056 9.12 7.216 8.87467 7.344 8.576C7.472 8.26667 7.56267 7.88267 7.616 7.424H4.24V5.216H7.6C7.49333 4.384 7.25333 3.808 6.88 3.488C6.50667 3.15733 6.02667 2.992 5.44 2.992C5.22667 2.992 5.01333 3.024 4.8 3.088C4.59733 3.14133 4.41067 3.23733 4.24 3.376C4.06933 3.504 3.92 3.67467 3.792 3.888C3.664 4.09067 3.57867 4.34133 3.536 4.64H0.56C0.613333 3.904 0.773333 3.28 1.04 2.768C1.31733 2.256 1.66933 1.84 2.096 1.52C2.53333 1.2 3.03467 0.965332 3.6 0.815999C4.16533 0.666666 4.77867 0.591999 5.44 0.591999C6.16533 0.591999 6.84267 0.698666 7.472 0.912C8.112 1.12533 8.66667 1.456 9.136 1.904C9.60533 2.352 9.97333 2.928 10.24 3.632C10.5067 4.336 10.64 5.17867 10.64 6.16V6.464C10.64 7.50933 10.512 8.39467 10.256 9.12C10 9.84533 9.64267 10.4373 9.184 10.896C8.736 11.3547 8.192 11.6907 7.552 11.904C6.912 12.1067 6.208 12.208 5.44 12.208ZM12.1594 3.52H14.6234V6.736H15.2634L17.6314 3.52H20.3194L17.1994 7.504L20.4794 12H17.5674L15.2634 8.624H14.6234V12H12.1594V3.52ZM25.1281 12.208C24.5308 12.208 23.9708 12.1227 23.4481 11.952C22.9255 11.7707 22.4668 11.4987 22.0721 11.136C21.6775 10.7733 21.3681 10.32 21.1441 9.776C20.9201 9.22133 20.8081 8.576 20.8081 7.84V7.52C20.8081 6.82667 20.9201 6.21867 21.1441 5.696C21.3681 5.17333 21.6775 4.736 22.0721 4.384C22.4668 4.032 22.9255 3.76533 23.4481 3.584C23.9708 3.40267 24.5308 3.312 25.1281 3.312C25.7255 3.312 26.2855 3.40267 26.8081 3.584C27.3308 3.76533 27.7895 4.032 28.1841 4.384C28.5788 4.736 28.8881 5.17333 29.1121 5.696C29.3361 6.21867 29.4481 6.82667 29.4481 7.52V7.84C29.4481 8.56533 29.3361 9.20533 29.1121 9.76C28.8881 10.304 28.5788 10.7573 28.1841 11.12C27.7895 11.4827 27.3308 11.7547 26.8081 11.936C26.2855 12.1173 25.7255 12.208 25.1281 12.208ZM25.1281 10.16C25.7041 10.16 26.1468 9.952 26.4561 9.536C26.7655 9.12 26.9201 8.55467 26.9201 7.84V7.52C26.9201 6.88 26.7655 6.36267 26.4561 5.968C26.1468 5.56267 25.7041 5.36 25.1281 5.36C24.5521 5.36 24.1095 5.56267 23.8001 5.968C23.4908 6.36267 23.3361 6.88 23.3361 7.52V7.84C23.3361 8.576 23.4908 9.14667 23.8001 9.552C24.1095 9.95733 24.5521 10.16 25.1281 10.16ZM30.1619 9.632H31.4419C31.5805 9.26933 31.6925 8.85333 31.7779 8.384C31.8739 7.904 31.9485 7.39733 32.0019 6.864C32.0552 6.32 32.0925 5.76533 32.1139 5.2C32.1459 4.624 32.1619 4.064 32.1619 3.52V0.799999H40.3859V9.632H41.5219V14.08H39.0259V12H32.6579V14.08H30.1619V9.632ZM37.5059 9.632V3.168H34.8499V3.84C34.8499 5.14133 34.7965 6.26667 34.6899 7.216C34.5939 8.15467 34.4339 8.96 34.2099 9.632H37.5059ZM46.7219 12.208C46.1245 12.208 45.5645 12.1227 45.0419 11.952C44.5192 11.7707 44.0605 11.4987 43.6659 11.136C43.2712 10.7733 42.9619 10.32 42.7379 9.776C42.5139 9.22133 42.4019 8.576 42.4019 7.84V7.52C42.4019 6.82667 42.5139 6.21867 42.7379 5.696C42.9619 5.17333 43.2712 4.736 43.6659 4.384C44.0605 4.032 44.5192 3.76533 45.0419 3.584C45.5645 3.40267 46.1245 3.312 46.7219 3.312C47.3192 3.312 47.8792 3.40267 48.4019 3.584C48.9245 3.76533 49.3832 4.032 49.7779 4.384C50.1725 4.736 50.4819 5.17333 50.7059 5.696C50.9299 6.21867 51.0419 6.82667 51.0419 7.52V7.84C51.0419 8.56533 50.9299 9.20533 50.7059 9.76C50.4819 10.304 50.1725 10.7573 49.7779 11.12C49.3832 11.4827 48.9245 11.7547 48.4019 11.936C47.8792 12.1173 47.3192 12.208 46.7219 12.208ZM46.7219 10.16C47.2979 10.16 47.7405 9.952 48.0499 9.536C48.3592 9.12 48.5139 8.55467 48.5139 7.84V7.52C48.5139 6.88 48.3592 6.36267 48.0499 5.968C47.7405 5.56267 47.2979 5.36 46.7219 5.36C46.1459 5.36 45.7032 5.56267 45.3939 5.968C45.0845 6.36267 44.9299 6.88 44.9299 7.52V7.84C44.9299 8.576 45.0845 9.14667 45.3939 9.552C45.7032 9.95733 46.1459 10.16 46.7219 10.16ZM52.3156 3.52H55.3076L57.3236 7.728L59.3396 3.52H62.2356V12H59.8996V6.8L58.0756 10.4H56.4756L54.6516 6.8V12H52.3156V3.52Z" fill="white"/>
</svg>
